<?xml version="1.0" encoding="UTF-8" standalone="no"?>
<!-- Created with Inkscape (http://www.inkscape.org/) -->

<svg
   version="1.1"
   id="svg2"
   width="100"
   height="100"
   viewBox="0 0 100 100"
   sodipodi:docname="holiday-solid_.svg"
   inkscape:version="1.2.1 (9c6d41e410, 2022-07-14)"
   xmlns:inkscape="http://www.inkscape.org/namespaces/inkscape"
   xmlns:sodipodi="http://sodipodi.sourceforge.net/DTD/sodipodi-0.dtd"
   xmlns="http://www.w3.org/2000/svg"
   xmlns:svg="http://www.w3.org/2000/svg">
  <defs
     id="defs6" />
  <sodipodi:namedview
     id="namedview4"
     pagecolor="#ffffff"
     bordercolor="#000000"
     borderopacity="0.25"
     inkscape:showpageshadow="2"
     inkscape:pageopacity="0.0"
     inkscape:pagecheckerboard="0"
     inkscape:deskcolor="#d1d1d1"
     showgrid="false"
     inkscape:zoom="7.63"
     inkscape:cx="33.682831"
     inkscape:cy="39.711664"
     inkscape:window-width="1920"
     inkscape:window-height="950"
     inkscape:window-x="-9"
     inkscape:window-y="-9"
     inkscape:window-maximized="1"
     inkscape:current-layer="g8" />
  <g
     inkscape:groupmode="layer"
     inkscape:label="Image"
     id="g8">
    <path
       style="display:inline;fill:#000000"
       d="M 48,90.810468 C 48,70.867439 55.772215,50.39213 67.779098,38.703942 l 3.899563,-3.796058 1.262263,1.520933 c 0.694244,0.836514 1.337994,3.794332 1.430553,6.572929 l 0.168291,5.051995 -3.400321,3.223129 C 63.243281,58.761566 55.061121,74.631701 51.432762,89.5 49.037725,99.314387 48,99.710541 48,90.810468 Z M 31.691749,89.566191 c -1.973179,-4.154955 -4.961032,-9.55068 -6.639674,-11.990502 -3.789324,-5.507594 -3.312894,-9.349486 1.18353,-9.543886 2.578563,-0.111482 11.803956,26.328636 9.863538,28.269054 -0.450888,0.450888 -2.434215,-2.579712 -4.407394,-6.734666 z M 54,94.460162 c 0,-5.299801 6.597349,-12.793619 14.933211,-16.962385 l 5.433212,-2.717149 1.316788,1.800816 C 77.495219,79.059512 77.331879,80.957821 75.25,81.616164 69.141631,83.547786 64.924919,86.138789 60.385191,90.75 54.850225,96.372121 54,96.86615 54,94.460162 Z M 40.65076,91.5 C 40.183678,89.3 38.897341,83 37.792233,77.5 34.765094,62.434267 31.33863,51.331094 27.141515,42.98723 l -3.779061,-7.51277 1.198425,-2.931928 C 25.739974,29.657892 27.881,28.208772 31.16847,28.070285 35.773516,27.876295 42.468833,64.016969 41.807732,85.5 L 41.5,95.5 Z m 50.333196,-7.019332 c -0.896348,-1.080033 -2.232881,-1.336994 -4.622445,-0.888709 -3.709145,0.695839 -3.772309,0.618721 -2.415713,-2.949398 l 0.945799,-2.487638 -1.445799,-1.199906 c -2.443944,-2.028294 -1.791384,-4.254234 1.08593,-3.704201 l 2.531728,0.483971 1.862192,-2.367394 c 2.338546,-2.972978 2.709228,-2.958298 3.486368,0.138073 0.394515,1.571872 1.828696,2.995061 3.848881,3.819383 l 3.22005,1.313917 -2.740474,1.795627 C 94.801383,79.704934 94,81.073663 94,83.11501 c 0,3.189656 -1.091927,3.684077 -3.016044,1.365658 z M 12.444375,69.938535 10.621456,67.924232 7.8107278,68.541571 C 4.738273,69.216395 4.2770935,68.21928 6.0926407,64.826899 L 7.1852814,62.785281 6.0926407,61.692641 C 4.0922149,59.692215 4.9101821,58 7.8775553,58 9.4602107,58 11.315311,57.325 12,56.5 c 1.810683,-2.181739 2.678035,-1.862347 3.81727,1.405665 0.557106,1.598115 1.951127,3.203439 3.097825,3.567387 2.765624,0.877775 2.631727,1.956769 -0.415095,3.344994 -1.681437,0.766114 -2.5,1.945335 -2.5,3.601498 0,3.353525 -1.36692,3.937483 -3.555625,1.518991 z M 45.448396,47.576618 c -1.796401,-9.57564 1.186773,-29.31433 4.25257,-28.137874 C 50.505401,19.747435 51.528626,20 51.974799,20 53.938796,20 53.788914,23.587651 51.545171,30.283801 50.21527,34.25271 48.814761,39.975 48.432928,43 c -0.971823,7.699081 -2.079968,9.398361 -2.984532,4.576618 z m 35.454712,-4.306294 c -0.05329,-0.423678 -0.01958,-2.448072 0.0749,-4.498654 L 81.149805,35.04334 78.5749,32.656999 c -3.357501,-3.111627 -3.294959,-3.286241 1.448711,-4.044785 l 4.023615,-0.643401 1.661597,-3.484407 c 2.075347,-4.352048 2.895353,-4.3675 4.683335,-0.08826 l 1.419002,3.396151 4.094418,0.691747 c 4.795012,0.810112 4.971442,1.343407 1.517807,4.587924 l -2.576611,2.4206 0.637884,4.253714 c 0.717099,4.781958 0.253398,5.056685 -3.906454,2.314443 l -2.921792,-1.926093 -3.828208,1.953006 c -2.105514,1.074153 -3.87181,1.60636 -3.9251,1.182682 z M 14.526172,31.082462 c -0.334731,-1.054646 -1.522717,-3.079646 -2.639967,-4.5 L 9.8548397,24 H 4.9274199 C -0.89876708,24 -0.98466128,23.699113 3.3715423,18.549761 L 6.713331,14.599522 5.3934963,9.5962634 C 3.7435333,3.3415471 3.9989624,3.115127 9.6227151,5.8473571 l 4.5788359,2.22457 4.327294,-2.5359635 C 24.367282,2.1144118 24.54932,2.206365 24.164181,8.3825474 l -0.335819,5.3852746 4.05614,3.259602 c 4.852645,3.899692 4.627587,4.576935 -1.815462,5.463081 l -4.928727,0.677873 -1.767701,4.915811 c -1.833559,5.098957 -3.794643,6.312191 -4.84644,2.998273 z M 58.890696,17.659448 C 58.081802,15.88412 56.602603,14.670521 54.810858,14.312172 51.498595,13.649719 51.234429,12.495055 54,10.767927 55.358116,9.9197696 56,8.4358995 56,6.1444433 V 2.7699801 l 2.453832,1.6078123 2.453831,1.6078122 2.611268,-0.9928023 c 3.52363,-1.3396816 3.424727,-1.4204613 2.820398,2.3035856 -0.373985,2.3045987 -0.0542,3.6953611 1.06287,4.6224451 C 69.771405,13.885099 69.347838,15 66.231617,15 c -1.942043,0 -3.261426,0.812577 -4.420163,2.722276 l -1.65178,2.722277 z"
       id="path188" />
  </g>
</svg>
